<?xml version="1.0" standalone="no"?>
<!DOCTYPE svg PUBLIC "-//W3C//DTD SVG 20010904//EN"
 "http://www.w3.org/TR/2001/REC-SVG-20010904/DTD/svg10.dtd">
<svg version="1.0" xmlns="http://www.w3.org/2000/svg"
 width="280.000000pt" height="280.000000pt" viewBox="0 0 280.000000 280.000000"
 preserveAspectRatio="xMidYMid meet">
<metadata>
Created by potrace 1.11, written by Peter Selinger 2001-2013
</metadata>
<g transform="translate(0.000000,280.000000) scale(0.100000,-0.100000)"
fill="#000000" stroke="none">
<path d="M1288 2635 c-2 -2 -30 -6 -62 -9 -148 -15 -349 -89 -495 -184 -277
-179 -464 -450 -543 -786 -28 -122 -31 -370 -4 -494 92 -433 377 -768 781
-920 44 -16 94 -33 110 -37 17 -4 39 -9 50 -12 109 -27 377 -38 465 -19 14 3
39 8 55 11 221 43 472 179 633 344 246 249 371 569 357 911 -8 197 -41 328
-125 505 -163 341 -482 587 -870 670 -65 14 -342 30 -352 20z m300 -49 c5 -3
27 -9 48 -12 54 -9 51 -8 129 -33 104 -32 260 -112 344 -175 262 -197 424
-467 477 -796 10 -60 11 -271 1 -338 -54 -381 -299 -723 -643 -898 -257 -130
-520 -162 -829 -99 -55 11 -179 57 -250 93 -316 158 -550 453 -631 797 -27
115 -28 124 -28 275 -1 290 85 534 265 756 197 242 467 390 799 437 39 5 308
0 318 -7z"/>
<path d="M1410 2279 c-47 -3 -105 -12 -130 -19 -134 -37 -334 -204 -389 -325
-41 -91 -50 -115 -75 -206 l-23 -84 -41 -8 c-33 -6 -43 -14 -48 -33 -3 -13
-10 -24 -16 -24 -5 0 -7 -4 -3 -9 3 -5 1 -13 -5 -16 -8 -5 -8 -11 0 -20 8 -10
7 -16 -7 -23 -10 -6 -15 -14 -11 -18 5 -4 3 -14 -4 -21 -9 -11 -9 -17 3 -24 9
-6 10 -12 4 -16 -10 -7 -10 -13 -6 -41 0 -5 12 -22 25 -37 26 -31 28 -23 -21
-102 -9 -15 -18 -50 -19 -78 -1 -27 -3 -54 -4 -60 -1 -5 -1 -12 0 -15 1 -3 3
-16 4 -30 1 -14 5 -31 9 -37 5 -8 3 -13 -5 -13 -9 0 -9 -3 2 -10 12 -8 12 -10
1 -10 -11 0 -10 -4 2 -23 10 -16 12 -28 5 -40 -5 -10 -5 -17 0 -17 5 0 8 -10
8 -22 -1 -13 0 -27 3 -33 3 -5 6 -12 7 -15 3 -17 17 -67 21 -80 3 -8 8 -24 10
-34 2 -11 8 -25 14 -32 6 -7 8 -18 4 -24 -4 -7 191 -10 629 -10 513 0 636 3
636 13 0 20 -38 56 -65 63 -14 3 -25 8 -25 9 0 2 13 32 29 66 16 34 27 69 24
76 -3 7 0 13 7 13 7 0 10 7 7 15 -4 8 -3 16 1 19 4 3 8 25 7 50 0 25 4 46 9
46 4 0 6 9 3 20 -3 11 -2 18 3 15 4 -3 11 2 14 11 4 10 2 13 -6 8 -7 -5 -8 -3
-2 7 12 19 11 62 -1 71 -6 5 -6 8 1 8 12 0 12 29 -1 49 -6 10 -4 12 5 6 9 -5
11 -4 6 4 -4 6 -10 28 -12 49 -3 20 -11 46 -19 58 -14 22 -11 50 10 91 6 12
10 52 9 89 -3 52 -9 75 -29 104 -28 41 -31 62 -11 79 35 29 -40 163 -113 201
-33 17 -15 30 52 37 50 5 60 10 83 41 16 20 27 47 26 63 0 16 4 29 9 29 5 0 9
15 9 34 0 28 -8 41 -40 68 -28 25 -38 40 -34 54 13 48 -84 69 -159 35 -25 -12
-49 -21 -52 -21 -4 0 -13 -7 -21 -15 -13 -13 -20 -12 -55 11 -49 30 -131 41
-249 33z"/>
</g>
</svg>
